<svg xmlns="http://www.w3.org/2000/svg" width="96" height="64" viewBox="0 0 130 82">
  <filter id="s" x="-20%" y="-20%" width="140%" height="150%">
    <feDropShadow dx="0" dy="7" stdDeviation="4" flood-color="#033846" flood-opacity=".32"/>
  </filter>
  <g filter="url(#s)">
    <path d="M56 34C40 25 24 18 5 20c17 13 31 24 53 27 6 1 10-8-2-13Z" fill="#fff" stroke="#d8ece8" stroke-width="2" stroke-linejoin="round"/>
    <path d="M49 43c16-17 35-26 58-21-12 3-19 9-24 17 11 2 23 6 36 13-24 4-45 1-63-8-3 2-5 3-7 3-5 0-5-2 0-4Z" fill="#fff" stroke="#d8ece8" stroke-width="2" stroke-linejoin="round"/>
    <path d="M78 30c13-14 27-20 45-20-10 5-18 13-25 24" fill="none" stroke="#fff" stroke-width="7" stroke-linecap="round"/>
    <path d="M118 10c5-4 9-4 12-1-4 2-7 4-10 7" fill="none" stroke="#fff" stroke-width="7" stroke-linecap="round"/>
    <path d="M58 39C41 44 27 55 17 74c22-5 38-13 51-28 4-5-1-10-10-7Z" fill="#fff" stroke="#d8ece8" stroke-width="2" stroke-linejoin="round"/>
    <path d="M127 9l3 1-4 2Z" fill="#e8d38b"/>
  </g>
</svg>
